<svg xmlns="http://www.w3.org/2000/svg" viewBox="0 0 1148 436" font-family="'IBM Plex Sans',Arial,sans-serif" role="img" aria-label="Линия сварки тороидальных баллонов — планировка">
<rect x="0" y="0" width="1148" height="436" fill="#ffffff"/>
<rect x="57.6" y="74.7" width="68.4" height="57.0" fill="#1f66c4" opacity="0.1" stroke="#1f66c4" stroke-dasharray="4 3"/>
<rect x="525.0" y="228.6" width="79.8" height="68.4" fill="#1f66c4" opacity="0.1" stroke="#1f66c4" stroke-dasharray="4 3"/>
<text x="564.9" y="262.8" text-anchor="middle" fill="#1f66c4" font-size="10.5" font-weight="600">Резерв: пост 3</text>
<circle cx="262.8" cy="171.6" r="102.6" fill="#1f66c4" opacity="0.1"/>
<circle cx="262.8" cy="171.6" r="102.6" fill="none" stroke="#1f66c4" stroke-width="1.2" stroke-dasharray="4 4"/>
<circle cx="452.8" cy="171.6" r="102.6" fill="#1f66c4" opacity="0.1"/>
<circle cx="452.8" cy="171.6" r="102.6" fill="none" stroke="#1f66c4" stroke-width="1.2" stroke-dasharray="4 4"/>
<g class="pobj" data-pos="1"><line x1="67.1" y1="89.8" x2="67.1" y2="116.6" stroke="#c2cedd" stroke-width="2"/>
<line x1="97.5" y1="89.8" x2="97.5" y2="116.6" stroke="#c2cedd" stroke-width="2"/>
<line x1="127.9" y1="89.8" x2="127.9" y2="116.6" stroke="#c2cedd" stroke-width="2"/>
<line x1="158.3" y1="89.8" x2="158.3" y2="116.6" stroke="#c2cedd" stroke-width="2"/>
<line x1="188.7" y1="89.8" x2="188.7" y2="116.6" stroke="#c2cedd" stroke-width="2"/>
<line x1="219.1" y1="89.8" x2="219.1" y2="116.6" stroke="#c2cedd" stroke-width="2"/>
<line x1="249.5" y1="89.8" x2="249.5" y2="116.6" stroke="#c2cedd" stroke-width="2"/>
<line x1="279.9" y1="89.8" x2="279.9" y2="116.6" stroke="#c2cedd" stroke-width="2"/>
<line x1="310.3" y1="89.8" x2="310.3" y2="116.6" stroke="#c2cedd" stroke-width="2"/>
<line x1="340.7" y1="89.8" x2="340.7" y2="116.6" stroke="#c2cedd" stroke-width="2"/>
<line x1="371.1" y1="89.8" x2="371.1" y2="116.6" stroke="#c2cedd" stroke-width="2"/>
<line x1="401.5" y1="89.8" x2="401.5" y2="116.6" stroke="#c2cedd" stroke-width="2"/>
<line x1="431.9" y1="89.8" x2="431.9" y2="116.6" stroke="#c2cedd" stroke-width="2"/>
<line x1="462.3" y1="89.8" x2="462.3" y2="116.6" stroke="#c2cedd" stroke-width="2"/>
<line x1="492.7" y1="89.8" x2="492.7" y2="116.6" stroke="#c2cedd" stroke-width="2"/>
<line x1="523.1" y1="89.8" x2="523.1" y2="116.6" stroke="#c2cedd" stroke-width="2"/>
<line x1="58.4" y1="95.6" x2="543.2" y2="95.6" stroke="#5c6b7e" stroke-width="1.8"/>
<line x1="58.4" y1="110.8" x2="543.2" y2="110.8" stroke="#5c6b7e" stroke-width="1.8"/></g>
<g class="pobj" data-pos="2"><polygon points="406.4,89.1 467.2,89.1 467.2,117.3 406.4,117.3" stroke="#c2cedd" stroke-width="1.2" fill="#eef2f8"/></g>
<g class="pobj" data-pos="3"><line x1="148.8" y1="55.7" x2="616.2" y2="55.7" stroke="#17202c" stroke-width="2" stroke-dasharray="7 4"/>
<line x1="616.2" y1="55.7" x2="616.2" y2="162.5" stroke="#17202c" stroke-width="2" stroke-dasharray="7 4"/>
<line x1="616.2" y1="223.3" x2="616.2" y2="312.2" stroke="#17202c" stroke-width="2" stroke-dasharray="7 4"/>
<line x1="148.8" y1="312.2" x2="270.0" y2="312.2" stroke="#17202c" stroke-width="2" stroke-dasharray="7 4"/>
<line x1="319.4" y1="312.2" x2="445.6" y2="312.2" stroke="#17202c" stroke-width="2" stroke-dasharray="7 4"/>
<line x1="495.0" y1="312.2" x2="616.2" y2="312.2" stroke="#17202c" stroke-width="2" stroke-dasharray="7 4"/>
<line x1="148.8" y1="55.7" x2="148.8" y2="72.8" stroke="#17202c" stroke-width="2" stroke-dasharray="7 4"/>
<line x1="148.8" y1="133.6" x2="148.8" y2="191.4" stroke="#17202c" stroke-width="2" stroke-dasharray="7 4"/>
<line x1="148.8" y1="240.8" x2="148.8" y2="312.2" stroke="#17202c" stroke-width="2" stroke-dasharray="7 4"/>
<line x1="148.8" y1="72.8" x2="148.8" y2="133.6" stroke="#1f66c4" stroke-width="2.5" stroke-dasharray="2 3"/>
<line x1="616.2" y1="162.5" x2="616.2" y2="223.3" stroke="#1f66c4" stroke-width="2.5" stroke-dasharray="2 3"/></g>
<g class="pobj" data-pos="4"><line x1="357.8" y1="216.8" x2="357.8" y2="255.2" stroke="#17202c" stroke-width="2" stroke-dasharray="7 4"/>
<line x1="357.8" y1="216.8" x2="357.8" y2="255.2" stroke="#17202c" stroke-width="2" stroke-dasharray="7 4"/></g>
<line x1="357.8" y1="127.9" x2="357.8" y2="168.9" stroke="#17202c" stroke-width="2" stroke-dasharray="7 4"/>
<line x1="357.8" y1="127.9" x2="357.8" y2="168.9" stroke="#17202c" stroke-width="2" stroke-dasharray="7 4"/>
<g class="pobj" data-pos="5"><polygon points="247.6,156.4 278.0,156.4 278.0,186.8 247.6,186.8" stroke="#c2cedd" stroke-width="1.2" fill="#eef2f8"/>
<circle cx="262.8" cy="171.6" r="5" fill="#1f66c4"/></g>
<g class="pobj" data-pos="6"><polygon points="310.3,283.3 340.7,283.3 340.7,306.9 310.3,306.9" stroke="#c2cedd" stroke-width="1.2" fill="#eef2f8"/></g>
<g class="pobj" data-pos="7"><polygon points="257.1,248.0 268.5,248.0 268.5,259.4 257.1,259.4" stroke="#c2cedd" stroke-width="1.2" fill="#eef2f8"/></g>
<g class="pobj" data-pos="8"><polygon points="260.5,226.3 265.1,226.3 265.1,248.0 260.5,248.0" stroke="#c2cedd" stroke-width="1.2" fill="#eef2f8"/></g>
<g class="pobj" data-pos="9"><polygon points="278.0,251.4 289.4,251.4 289.4,262.8 278.0,262.8" stroke="#c2cedd" stroke-width="1.2" fill="#eef2f8"/></g>
<g class="pobj" data-pos="10"><polygon points="195.9,134.4 209.9,116.4 230.9,132.8 216.9,150.8" stroke="#c2cedd" stroke-width="1.2" fill="#eef2f8"/></g>
<g class="pobj" data-pos="11"><polygon points="206.2,255.6 232.0,255.6 232.0,273.8 206.2,273.8" stroke="#c2cedd" stroke-width="1.2" fill="#eef2f8"/></g>
<g class="pobj" data-pos="12"><circle cx="190.6" cy="262.8" r="9.9" fill="#eef2f8" stroke="#c2cedd" stroke-width="1.2"/>
<circle cx="190.6" cy="262.8" r="5.4" fill="none" stroke="#c2cedd"/></g>
<g class="pobj" data-pos="13"><polygon points="221.0,209.6 304.6,209.6 304.6,274.2 221.0,274.2" stroke="#5c6b7e" stroke-width="1.2" stroke-dasharray="4 3" fill="none"/></g>
<g class="pobj" data-pos="14"><polygon points="222.1,273.6 303.5,273.6 303.5,274.8 222.1,274.8" stroke="#c2cedd" stroke-width="1.2" fill="#eef2f8"/></g>
<polygon points="220.4,225.2 221.6,225.2 221.6,273.6 220.4,273.6" stroke="#c2cedd" stroke-width="1.2" fill="#eef2f8"/>
<polygon points="220.4,210.0 221.6,210.0 221.6,224.4 220.4,224.4" stroke="#c2cedd" stroke-width="1.2" fill="#eef2f8"/>
<polygon points="304.0,225.2 305.2,225.2 305.2,273.6 304.0,273.6" stroke="#c2cedd" stroke-width="1.2" fill="#eef2f8"/>
<polygon points="304.0,210.0 305.2,210.0 305.2,224.4 304.0,224.4" stroke="#c2cedd" stroke-width="1.2" fill="#eef2f8"/>
<g class="pobj" data-pos="15"><polygon points="437.6,156.4 468.0,156.4 468.0,186.8 437.6,186.8" stroke="#c2cedd" stroke-width="1.2" fill="#eef2f8"/>
<circle cx="452.8" cy="171.6" r="5" fill="#1f66c4"/></g>
<g class="pobj" data-pos="16"><polygon points="500.3,283.3 530.7,283.3 530.7,306.9 500.3,306.9" stroke="#c2cedd" stroke-width="1.2" fill="#eef2f8"/></g>
<g class="pobj" data-pos="17"><polygon points="447.1,248.0 458.5,248.0 458.5,259.4 447.1,259.4" stroke="#c2cedd" stroke-width="1.2" fill="#eef2f8"/></g>
<g class="pobj" data-pos="18"><polygon points="450.5,226.3 455.1,226.3 455.1,248.0 450.5,248.0" stroke="#c2cedd" stroke-width="1.2" fill="#eef2f8"/></g>
<g class="pobj" data-pos="19"><polygon points="468.0,251.4 479.4,251.4 479.4,262.8 468.0,262.8" stroke="#c2cedd" stroke-width="1.2" fill="#eef2f8"/></g>
<g class="pobj" data-pos="20"><polygon points="385.9,134.4 399.9,116.4 420.9,132.8 406.9,150.8" stroke="#c2cedd" stroke-width="1.2" fill="#eef2f8"/></g>
<g class="pobj" data-pos="21"><polygon points="396.2,255.6 422.0,255.6 422.0,273.8 396.2,273.8" stroke="#c2cedd" stroke-width="1.2" fill="#eef2f8"/></g>
<g class="pobj" data-pos="22"><circle cx="380.6" cy="262.8" r="9.9" fill="#eef2f8" stroke="#c2cedd" stroke-width="1.2"/>
<circle cx="380.6" cy="262.8" r="5.4" fill="none" stroke="#c2cedd"/></g>
<g class="pobj" data-pos="23"><polygon points="411.0,209.6 494.6,209.6 494.6,274.2 411.0,274.2" stroke="#5c6b7e" stroke-width="1.2" stroke-dasharray="4 3" fill="none"/></g>
<g class="pobj" data-pos="24"><polygon points="412.1,273.6 493.5,273.6 493.5,274.8 412.1,274.8" stroke="#c2cedd" stroke-width="1.2" fill="#eef2f8"/></g>
<polygon points="410.4,225.2 411.6,225.2 411.6,273.6 410.4,273.6" stroke="#c2cedd" stroke-width="1.2" fill="#eef2f8"/>
<polygon points="410.4,210.0 411.6,210.0 411.6,224.4 410.4,224.4" stroke="#c2cedd" stroke-width="1.2" fill="#eef2f8"/>
<polygon points="494.0,225.2 495.2,225.2 495.2,273.6 494.0,273.6" stroke="#c2cedd" stroke-width="1.2" fill="#eef2f8"/>
<polygon points="494.0,210.0 495.2,210.0 495.2,224.4 494.0,224.4" stroke="#c2cedd" stroke-width="1.2" fill="#eef2f8"/>
<g class="pobj" data-pos="25"><polygon points="310.3,175.6 395.0,175.6 395.0,210.2 310.3,210.2" stroke="#c2cedd" stroke-width="1.2" fill="#eef2f8"/>
<line x1="317.1" y1="179.0" x2="317.1" y2="206.7" stroke="#c2cedd" stroke-width="1"/>
<line x1="330.4" y1="179.0" x2="330.4" y2="206.7" stroke="#c2cedd" stroke-width="1"/>
<line x1="343.7" y1="179.0" x2="343.7" y2="206.7" stroke="#c2cedd" stroke-width="1"/>
<line x1="357.0" y1="179.0" x2="357.0" y2="206.7" stroke="#c2cedd" stroke-width="1"/>
<line x1="370.3" y1="179.0" x2="370.3" y2="206.7" stroke="#c2cedd" stroke-width="1"/>
<line x1="383.6" y1="179.0" x2="383.6" y2="206.7" stroke="#c2cedd" stroke-width="1"/></g>
<g class="pobj" data-pos="26"><polygon points="395.0,176.9 427.0,176.9 427.0,242.7 395.0,242.7" stroke="#c2cedd" stroke-width="1.2" fill="#eef2f8"/>
<line x1="398.2" y1="183.8" x2="423.8" y2="183.8" stroke="#c2cedd" stroke-width="1"/>
<line x1="398.2" y1="197.1" x2="423.8" y2="197.1" stroke="#c2cedd" stroke-width="1"/>
<line x1="398.2" y1="210.4" x2="423.8" y2="210.4" stroke="#c2cedd" stroke-width="1"/>
<line x1="398.2" y1="223.7" x2="423.8" y2="223.7" stroke="#c2cedd" stroke-width="1"/>
<line x1="398.2" y1="237.0" x2="423.8" y2="237.0" stroke="#c2cedd" stroke-width="1"/></g>
<g class="pobj" data-pos="27"><polygon points="427.0,209.4 478.6,209.4 478.6,244.0 427.0,244.0" stroke="#c2cedd" stroke-width="1.2" fill="#eef2f8"/>
<line x1="433.8" y1="212.9" x2="433.8" y2="240.5" stroke="#c2cedd" stroke-width="1"/>
<line x1="447.1" y1="212.9" x2="447.1" y2="240.5" stroke="#c2cedd" stroke-width="1"/>
<line x1="460.4" y1="212.9" x2="460.4" y2="240.5" stroke="#c2cedd" stroke-width="1"/>
<line x1="473.7" y1="212.9" x2="473.7" y2="240.5" stroke="#c2cedd" stroke-width="1"/></g>
<g class="pobj" data-pos="28"><polygon points="478.6,176.9 510.6,176.9 510.6,242.7 478.6,242.7" stroke="#c2cedd" stroke-width="1.2" fill="#eef2f8"/>
<line x1="481.8" y1="183.8" x2="507.4" y2="183.8" stroke="#c2cedd" stroke-width="1"/>
<line x1="481.8" y1="197.1" x2="507.4" y2="197.1" stroke="#c2cedd" stroke-width="1"/>
<line x1="481.8" y1="210.4" x2="507.4" y2="210.4" stroke="#c2cedd" stroke-width="1"/>
<line x1="481.8" y1="223.7" x2="507.4" y2="223.7" stroke="#c2cedd" stroke-width="1"/>
<line x1="481.8" y1="237.0" x2="507.4" y2="237.0" stroke="#c2cedd" stroke-width="1"/></g>
<g class="pobj" data-pos="29"><polygon points="510.6,175.6 639.0,175.6 639.0,210.2 510.6,210.2" stroke="#c2cedd" stroke-width="1.2" fill="#eef2f8"/>
<line x1="517.4" y1="179.0" x2="517.4" y2="206.7" stroke="#c2cedd" stroke-width="1"/>
<line x1="530.7" y1="179.0" x2="530.7" y2="206.7" stroke="#c2cedd" stroke-width="1"/>
<line x1="544.0" y1="179.0" x2="544.0" y2="206.7" stroke="#c2cedd" stroke-width="1"/>
<line x1="557.3" y1="179.0" x2="557.3" y2="206.7" stroke="#c2cedd" stroke-width="1"/>
<line x1="570.6" y1="179.0" x2="570.6" y2="206.7" stroke="#c2cedd" stroke-width="1"/>
<line x1="583.9" y1="179.0" x2="583.9" y2="206.7" stroke="#c2cedd" stroke-width="1"/>
<line x1="597.2" y1="179.0" x2="597.2" y2="206.7" stroke="#c2cedd" stroke-width="1"/>
<line x1="610.5" y1="179.0" x2="610.5" y2="206.7" stroke="#c2cedd" stroke-width="1"/>
<line x1="623.8" y1="179.0" x2="623.8" y2="206.7" stroke="#c2cedd" stroke-width="1"/></g>
<g class="pobj" data-pos="30"><polygon points="639.0,175.6 791.0,175.6 791.0,210.2 639.0,210.2" stroke="#c2cedd" stroke-width="1.2" fill="#eef2f8"/>
<line x1="645.8" y1="179.0" x2="645.8" y2="206.7" stroke="#c2cedd" stroke-width="1"/>
<line x1="659.1" y1="179.0" x2="659.1" y2="206.7" stroke="#c2cedd" stroke-width="1"/>
<line x1="672.4" y1="179.0" x2="672.4" y2="206.7" stroke="#c2cedd" stroke-width="1"/>
<line x1="685.7" y1="179.0" x2="685.7" y2="206.7" stroke="#c2cedd" stroke-width="1"/>
<line x1="699.0" y1="179.0" x2="699.0" y2="206.7" stroke="#c2cedd" stroke-width="1"/>
<line x1="712.3" y1="179.0" x2="712.3" y2="206.7" stroke="#c2cedd" stroke-width="1"/>
<line x1="725.6" y1="179.0" x2="725.6" y2="206.7" stroke="#c2cedd" stroke-width="1"/>
<line x1="738.9" y1="179.0" x2="738.9" y2="206.7" stroke="#c2cedd" stroke-width="1"/>
<line x1="752.2" y1="179.0" x2="752.2" y2="206.7" stroke="#c2cedd" stroke-width="1"/>
<line x1="765.5" y1="179.0" x2="765.5" y2="206.7" stroke="#c2cedd" stroke-width="1"/>
<line x1="778.8" y1="179.0" x2="778.8" y2="206.7" stroke="#c2cedd" stroke-width="1"/></g>
<g class="pobj" data-pos="31"><polygon points="791.0,175.6 1019.0,175.6 1019.0,210.2 791.0,210.2" stroke="#c2cedd" stroke-width="1.2" fill="#eef2f8"/>
<line x1="797.8" y1="179.0" x2="797.8" y2="206.7" stroke="#c2cedd" stroke-width="1"/>
<line x1="811.1" y1="179.0" x2="811.1" y2="206.7" stroke="#c2cedd" stroke-width="1"/>
<line x1="824.4" y1="179.0" x2="824.4" y2="206.7" stroke="#c2cedd" stroke-width="1"/>
<line x1="837.7" y1="179.0" x2="837.7" y2="206.7" stroke="#c2cedd" stroke-width="1"/>
<line x1="851.0" y1="179.0" x2="851.0" y2="206.7" stroke="#c2cedd" stroke-width="1"/>
<line x1="864.3" y1="179.0" x2="864.3" y2="206.7" stroke="#c2cedd" stroke-width="1"/>
<line x1="877.6" y1="179.0" x2="877.6" y2="206.7" stroke="#c2cedd" stroke-width="1"/>
<line x1="890.9" y1="179.0" x2="890.9" y2="206.7" stroke="#c2cedd" stroke-width="1"/>
<line x1="904.2" y1="179.0" x2="904.2" y2="206.7" stroke="#c2cedd" stroke-width="1"/>
<line x1="917.5" y1="179.0" x2="917.5" y2="206.7" stroke="#c2cedd" stroke-width="1"/>
<line x1="930.8" y1="179.0" x2="930.8" y2="206.7" stroke="#c2cedd" stroke-width="1"/>
<line x1="944.1" y1="179.0" x2="944.1" y2="206.7" stroke="#c2cedd" stroke-width="1"/>
<line x1="957.4" y1="179.0" x2="957.4" y2="206.7" stroke="#c2cedd" stroke-width="1"/>
<line x1="970.7" y1="179.0" x2="970.7" y2="206.7" stroke="#c2cedd" stroke-width="1"/>
<line x1="984.0" y1="179.0" x2="984.0" y2="206.7" stroke="#c2cedd" stroke-width="1"/>
<line x1="997.3" y1="179.0" x2="997.3" y2="206.7" stroke="#c2cedd" stroke-width="1"/>
<line x1="1010.6" y1="179.0" x2="1010.6" y2="206.7" stroke="#c2cedd" stroke-width="1"/></g>
<g class="pobj" data-pos="32"><polygon points="371.1,287.1 412.9,287.1 412.9,303.1 371.1,303.1" stroke="#c2cedd" stroke-width="1.2" fill="#eef2f8"/></g>
<g class="pobj" data-pos="33"><polygon points="320.2,325.5 338.4,325.5 338.4,340.7 320.2,340.7" stroke="#c2cedd" stroke-width="1.2" fill="#eef2f8"/></g>
<polygon points="449.1,91.8 456.5,91.8 456.5,114.6 449.1,114.6" stroke="#c2cedd" stroke-width="1.2" fill="#dce5f0"/>
<polygon points="256.1,217.2 263.5,217.2 263.5,240.0 256.1,240.0" stroke="#c2cedd" stroke-width="1.2" fill="#dce5f0"/>
<polygon points="810.0,181.5 832.8,181.5 832.8,204.3 810.0,204.3" stroke="#c2cedd" stroke-width="1.2" fill="#dce5f0"/>
<polygon points="842.3,181.5 865.1,181.5 865.1,204.3 842.3,204.3" stroke="#c2cedd" stroke-width="1.2" fill="#dce5f0"/>
<polygon points="874.6,181.5 897.4,181.5 897.4,204.3 874.6,204.3" stroke="#c2cedd" stroke-width="1.2" fill="#dce5f0"/>
<g class="pnum" data-pos="1"><circle cx="45.6" cy="78.0" r="9" fill="#ffffff" stroke="#1f66c4" stroke-width="1.2"/><text x="45.6" y="81.5" text-anchor="middle" fill="#1f66c4" font-family="'IBM Plex Mono',Menlo,monospace" font-size="10.5" font-weight="600">1</text></g>
<g class="pnum" data-pos="2"><circle cx="394.4" cy="79.1" r="9" fill="#ffffff" stroke="#1f66c4" stroke-width="1.2"/><text x="394.4" y="82.6" text-anchor="middle" fill="#1f66c4" font-family="'IBM Plex Mono',Menlo,monospace" font-size="10.5" font-weight="600">2</text></g>
<g class="pnum" data-pos="3"><circle cx="630.2" cy="184.0" r="9" fill="#ffffff" stroke="#1f66c4" stroke-width="1.2"/><text x="630.2" y="187.5" text-anchor="middle" fill="#1f66c4" font-family="'IBM Plex Mono',Menlo,monospace" font-size="10.5" font-weight="600">3</text></g>
<g class="pnum" data-pos="4"><circle cx="371.8" cy="236.0" r="9" fill="#ffffff" stroke="#1f66c4" stroke-width="1.2"/><text x="371.8" y="239.5" text-anchor="middle" fill="#1f66c4" font-family="'IBM Plex Mono',Menlo,monospace" font-size="10.5" font-weight="600">4</text></g>
<g class="pnum" data-pos="5"><circle cx="235.6" cy="146.4" r="9" fill="#ffffff" stroke="#1f66c4" stroke-width="1.2"/><text x="235.6" y="149.9" text-anchor="middle" fill="#1f66c4" font-family="'IBM Plex Mono',Menlo,monospace" font-size="10.5" font-weight="600">5</text></g>
<g class="pnum" data-pos="6"><circle cx="298.3" cy="273.3" r="9" fill="#ffffff" stroke="#1f66c4" stroke-width="1.2"/><text x="298.3" y="276.8" text-anchor="middle" fill="#1f66c4" font-family="'IBM Plex Mono',Menlo,monospace" font-size="10.5" font-weight="600">6</text></g>
<g class="pnum" data-pos="7"><circle cx="245.1" cy="238.0" r="9" fill="#ffffff" stroke="#1f66c4" stroke-width="1.2"/><text x="245.1" y="241.5" text-anchor="middle" fill="#1f66c4" font-family="'IBM Plex Mono',Menlo,monospace" font-size="10.5" font-weight="600">7</text></g>
<g class="pnum" data-pos="8"><circle cx="248.5" cy="216.3" r="9" fill="#ffffff" stroke="#1f66c4" stroke-width="1.2"/><text x="248.5" y="219.8" text-anchor="middle" fill="#1f66c4" font-family="'IBM Plex Mono',Menlo,monospace" font-size="10.5" font-weight="600">8</text></g>
<g class="pnum" data-pos="9"><circle cx="266.0" cy="241.4" r="9" fill="#ffffff" stroke="#1f66c4" stroke-width="1.2"/><text x="266.0" y="244.9" text-anchor="middle" fill="#1f66c4" font-family="'IBM Plex Mono',Menlo,monospace" font-size="10.5" font-weight="600">9</text></g>
<g class="pnum" data-pos="10"><circle cx="190.0" cy="110.3" r="9" fill="#ffffff" stroke="#1f66c4" stroke-width="1.2"/><text x="190.0" y="113.8" text-anchor="middle" fill="#1f66c4" font-family="'IBM Plex Mono',Menlo,monospace" font-size="10.5" font-weight="600">10</text></g>
<g class="pnum" data-pos="11"><circle cx="194.2" cy="245.6" r="9" fill="#ffffff" stroke="#1f66c4" stroke-width="1.2"/><text x="194.2" y="249.1" text-anchor="middle" fill="#1f66c4" font-family="'IBM Plex Mono',Menlo,monospace" font-size="10.5" font-weight="600">11</text></g>
<g class="pnum" data-pos="12"><circle cx="168.7" cy="242.9" r="9" fill="#ffffff" stroke="#1f66c4" stroke-width="1.2"/><text x="168.7" y="246.4" text-anchor="middle" fill="#1f66c4" font-family="'IBM Plex Mono',Menlo,monospace" font-size="10.5" font-weight="600">12</text></g>
<g class="pnum" data-pos="13"><circle cx="209.0" cy="199.6" r="9" fill="#ffffff" stroke="#1f66c4" stroke-width="1.2"/><text x="209.0" y="203.1" text-anchor="middle" fill="#1f66c4" font-family="'IBM Plex Mono',Menlo,monospace" font-size="10.5" font-weight="600">13</text></g>
<g class="pnum" data-pos="14"><circle cx="210.1" cy="263.6" r="9" fill="#ffffff" stroke="#1f66c4" stroke-width="1.2"/><text x="210.1" y="267.1" text-anchor="middle" fill="#1f66c4" font-family="'IBM Plex Mono',Menlo,monospace" font-size="10.5" font-weight="600">14</text></g>
<g class="pnum" data-pos="15"><circle cx="425.6" cy="146.4" r="9" fill="#ffffff" stroke="#1f66c4" stroke-width="1.2"/><text x="425.6" y="149.9" text-anchor="middle" fill="#1f66c4" font-family="'IBM Plex Mono',Menlo,monospace" font-size="10.5" font-weight="600">15</text></g>
<g class="pnum" data-pos="16"><circle cx="488.3" cy="273.3" r="9" fill="#ffffff" stroke="#1f66c4" stroke-width="1.2"/><text x="488.3" y="276.8" text-anchor="middle" fill="#1f66c4" font-family="'IBM Plex Mono',Menlo,monospace" font-size="10.5" font-weight="600">16</text></g>
<g class="pnum" data-pos="17"><circle cx="435.1" cy="238.0" r="9" fill="#ffffff" stroke="#1f66c4" stroke-width="1.2"/><text x="435.1" y="241.5" text-anchor="middle" fill="#1f66c4" font-family="'IBM Plex Mono',Menlo,monospace" font-size="10.5" font-weight="600">17</text></g>
<g class="pnum" data-pos="18"><circle cx="438.5" cy="216.3" r="9" fill="#ffffff" stroke="#1f66c4" stroke-width="1.2"/><text x="438.5" y="219.8" text-anchor="middle" fill="#1f66c4" font-family="'IBM Plex Mono',Menlo,monospace" font-size="10.5" font-weight="600">18</text></g>
<g class="pnum" data-pos="19"><circle cx="456.0" cy="241.4" r="9" fill="#ffffff" stroke="#1f66c4" stroke-width="1.2"/><text x="456.0" y="244.9" text-anchor="middle" fill="#1f66c4" font-family="'IBM Plex Mono',Menlo,monospace" font-size="10.5" font-weight="600">19</text></g>
<g class="pnum" data-pos="20"><circle cx="380.0" cy="110.3" r="9" fill="#ffffff" stroke="#1f66c4" stroke-width="1.2"/><text x="380.0" y="113.8" text-anchor="middle" fill="#1f66c4" font-family="'IBM Plex Mono',Menlo,monospace" font-size="10.5" font-weight="600">20</text></g>
<g class="pnum" data-pos="21"><circle cx="384.2" cy="266.6" r="9" fill="#ffffff" stroke="#1f66c4" stroke-width="1.2"/><text x="384.2" y="270.1" text-anchor="middle" fill="#1f66c4" font-family="'IBM Plex Mono',Menlo,monospace" font-size="10.5" font-weight="600">21</text></g>
<g class="pnum" data-pos="22"><circle cx="358.7" cy="263.9" r="9" fill="#ffffff" stroke="#1f66c4" stroke-width="1.2"/><text x="358.7" y="267.4" text-anchor="middle" fill="#1f66c4" font-family="'IBM Plex Mono',Menlo,monospace" font-size="10.5" font-weight="600">22</text></g>
<g class="pnum" data-pos="23"><circle cx="399.0" cy="199.6" r="9" fill="#ffffff" stroke="#1f66c4" stroke-width="1.2"/><text x="399.0" y="203.1" text-anchor="middle" fill="#1f66c4" font-family="'IBM Plex Mono',Menlo,monospace" font-size="10.5" font-weight="600">23</text></g>
<g class="pnum" data-pos="24"><circle cx="400.1" cy="284.6" r="9" fill="#ffffff" stroke="#1f66c4" stroke-width="1.2"/><text x="400.1" y="288.1" text-anchor="middle" fill="#1f66c4" font-family="'IBM Plex Mono',Menlo,monospace" font-size="10.5" font-weight="600">24</text></g>
<g class="pnum" data-pos="25"><circle cx="298.3" cy="165.6" r="9" fill="#ffffff" stroke="#1f66c4" stroke-width="1.2"/><text x="298.3" y="169.1" text-anchor="middle" fill="#1f66c4" font-family="'IBM Plex Mono',Menlo,monospace" font-size="10.5" font-weight="600">25</text></g>
<g class="pnum" data-pos="26"><circle cx="383.0" cy="166.9" r="9" fill="#ffffff" stroke="#1f66c4" stroke-width="1.2"/><text x="383.0" y="170.4" text-anchor="middle" fill="#1f66c4" font-family="'IBM Plex Mono',Menlo,monospace" font-size="10.5" font-weight="600">26</text></g>
<g class="pnum" data-pos="27"><circle cx="415.0" cy="220.4" r="9" fill="#ffffff" stroke="#1f66c4" stroke-width="1.2"/><text x="415.0" y="223.9" text-anchor="middle" fill="#1f66c4" font-family="'IBM Plex Mono',Menlo,monospace" font-size="10.5" font-weight="600">27</text></g>
<g class="pnum" data-pos="28"><circle cx="466.6" cy="166.9" r="9" fill="#ffffff" stroke="#1f66c4" stroke-width="1.2"/><text x="466.6" y="170.4" text-anchor="middle" fill="#1f66c4" font-family="'IBM Plex Mono',Menlo,monospace" font-size="10.5" font-weight="600">28</text></g>
<g class="pnum" data-pos="29"><circle cx="498.6" cy="165.6" r="9" fill="#ffffff" stroke="#1f66c4" stroke-width="1.2"/><text x="498.6" y="169.1" text-anchor="middle" fill="#1f66c4" font-family="'IBM Plex Mono',Menlo,monospace" font-size="10.5" font-weight="600">29</text></g>
<g class="pnum" data-pos="30"><circle cx="627.0" cy="207.6" r="9" fill="#ffffff" stroke="#1f66c4" stroke-width="1.2"/><text x="627.0" y="211.1" text-anchor="middle" fill="#1f66c4" font-family="'IBM Plex Mono',Menlo,monospace" font-size="10.5" font-weight="600">30</text></g>
<g class="pnum" data-pos="31"><circle cx="779.0" cy="165.6" r="9" fill="#ffffff" stroke="#1f66c4" stroke-width="1.2"/><text x="779.0" y="169.1" text-anchor="middle" fill="#1f66c4" font-family="'IBM Plex Mono',Menlo,monospace" font-size="10.5" font-weight="600">31</text></g>
<g class="pnum" data-pos="32"><circle cx="359.1" cy="298.1" r="9" fill="#ffffff" stroke="#1f66c4" stroke-width="1.2"/><text x="359.1" y="301.6" text-anchor="middle" fill="#1f66c4" font-family="'IBM Plex Mono',Menlo,monospace" font-size="10.5" font-weight="600">32</text></g>
<g class="pnum" data-pos="33"><circle cx="308.2" cy="315.5" r="9" fill="#ffffff" stroke="#1f66c4" stroke-width="1.2"/><text x="308.2" y="319.0" text-anchor="middle" fill="#1f66c4" font-family="'IBM Plex Mono',Menlo,monospace" font-size="10.5" font-weight="600">33</text></g>
<line x1="50" y1="370.4" x2="88" y2="370.4" stroke="#17202c" stroke-width="1.5"/>
<line x1="50" y1="366.4" x2="50" y2="374.4" stroke="#17202c" stroke-width="1.5"/>
<line x1="88" y1="366.4" x2="88" y2="374.4" stroke="#17202c" stroke-width="1.5"/>
<text x="98" y="374.4" fill="#5c6b7e" font-size="10.5">1 м</text>
</svg>
