<svg xmlns="http://www.w3.org/2000/svg" viewBox="0 0 1412 690" font-family="'IBM Plex Sans',Arial,sans-serif" role="img" aria-label="Модуль повторного считывания кодов Data Matrix, вариант О+Р — вид сбоку">
<rect x="0" y="0" width="1412" height="690" fill="#ffffff"/>
<line x1="76.0" y1="250.0" x2="1196.0" y2="250.0" stroke="#5c6b7e" stroke-width="0.8" stroke-dasharray="2 4" opacity="0.7"/><text x="1202.0" y="253.5" fill="#5c6b7e" font-size="10.5">1,90 м · верх рамы и закрытый верх</text>
<line x1="76.0" y1="310.0" x2="1196.0" y2="310.0" stroke="#5c6b7e" stroke-width="0.8" stroke-dasharray="2 4" opacity="0.7"/><text x="1202.0" y="313.5" fill="#5c6b7e" font-size="10.5">1,60 м · опасная зона (принята)</text>
<line x1="76.0" y1="330.0" x2="1196.0" y2="330.0" stroke="#5c6b7e" stroke-width="0.8" stroke-dasharray="2 4" opacity="0.7"/><text x="1202.0" y="333.5" fill="#5c6b7e" font-size="10.5">1,50 м · основание манипулятора</text>
<line x1="76.0" y1="450.0" x2="1196.0" y2="450.0" stroke="#5c6b7e" stroke-width="0.8" stroke-dasharray="2 4" opacity="0.7"/><text x="1202.0" y="453.5" fill="#5c6b7e" font-size="10.5">0,90 м · лента (принята)</text>
<g class="pobj" data-pos="26"><rect x="576.0" y="402.0" width="12.0" height="28.0" fill="#b9c6d9" stroke="#5f7390" rx="3"/></g>
<g class="pobj" data-pos="2"><rect x="216.0" y="250.0" width="10.0" height="380.0" fill="#eef2f8" stroke="#c2cedd" rx="3"/></g>
<g class="pobj" data-pos="2"><rect x="886.0" y="250.0" width="10.0" height="380.0" fill="#eef2f8" stroke="#c2cedd" rx="3"/></g>
<g class="pobj" data-pos="2"><rect x="216.0" y="250.0" width="680.0" height="10.0" fill="#eef2f8" stroke="#c2cedd" rx="3"/></g>
<g class="pobj" data-pos="2"><rect x="216.0" y="600.0" width="680.0" height="10.0" fill="#eef2f8" stroke="#c2cedd" rx="3"/></g>
<g class="pobj" data-pos="22"><rect x="306.0" y="430.0" width="100.0" height="200.0" fill="#eef2f8" stroke="#c2cedd" rx="3"/>
<rect x="318.0" y="446.0" width="76.0" height="124.0" fill="none" stroke="#c2cedd" stroke-width="1"/></g>
<g class="pobj" data-pos="23"><rect x="390.0" y="320.0" width="52.0" height="40.0" fill="#eef2f8" stroke="#c2cedd" rx="3"/></g>
<g class="pobj" data-pos="23"><rect x="411.0" y="360.0" width="10.0" height="270.0" fill="#eef2f8" stroke="#c2cedd" rx="3"/></g>
<g class="pobj" data-pos="24"><rect x="869.0" y="180.0" width="14.0" height="60.0" fill="#eef2f8" stroke="#c2cedd" rx="5"/></g>
<g class="pobj" data-pos="24"><rect x="872.0" y="240.0" width="8.0" height="390.0" fill="#eef2f8" stroke="#c2cedd" rx="3"/></g>
<g class="pobj" data-pos="19"><rect x="688.0" y="270.0" width="16.0" height="360.0" fill="#eef2f8" stroke="#c2cedd" rx="3"/></g>
<g class="pobj" data-pos="9"><rect x="484.0" y="364.0" width="24.0" height="32.0" fill="#b9c6d9" stroke="#5f7390" rx="3"/></g>
<g class="pobj" data-pos="4"><rect x="232.0" y="448.0" width="16.0" height="16.0" fill="#b9c6d9" stroke="#5f7390" rx="5"/></g>
<g class="pobj" data-pos="13"><rect x="610.0" y="426.0" width="20.0" height="24.0" fill="#eef2f8" stroke="#c2cedd" rx="3"/></g>
<g class="pobj" data-pos="27"><rect x="896.0" y="420.0" width="90.0" height="30.0" fill="#eef2f8" stroke="#c2cedd" rx="3"/></g>
<g class="pobj" data-pos="5"><rect x="296.0" y="438.0" width="60.0" height="12.0" fill="#eef2f8" stroke="#c2cedd" rx="3"/></g>
<g class="pobj" data-pos="3"><rect x="216.0" y="470.0" width="680.0" height="16.0" fill="#eef2f8" stroke="#c2cedd" rx="3"/></g>
<g class="pobj" data-pos="1"><rect x="96.0" y="450.0" width="120.0" height="20.0" fill="#fbefe3" stroke="#dcc3a8" rx="3"/>
<circle cx="132.0" cy="461.0" r="11.0" fill="none" stroke="#5c6b7e" stroke-width="1" opacity="0.7"/></g>
<g class="pobj" data-pos="3"><rect x="216.0" y="450.0" width="322.0" height="20.0" fill="#eef2f8" stroke="#c2cedd" rx="3"/>
<circle cx="252.0" cy="461.0" r="11.0" fill="none" stroke="#5c6b7e" stroke-width="1" opacity="0.7"/>
<circle cx="322.0" cy="461.0" r="11.0" fill="none" stroke="#5c6b7e" stroke-width="1" opacity="0.7"/>
<circle cx="392.0" cy="461.0" r="11.0" fill="none" stroke="#5c6b7e" stroke-width="1" opacity="0.7"/>
<circle cx="462.0" cy="461.0" r="11.0" fill="none" stroke="#5c6b7e" stroke-width="1" opacity="0.7"/></g>
<g class="pobj" data-pos="3"><rect x="550.0" y="450.0" width="346.0" height="20.0" fill="#eef2f8" stroke="#c2cedd" rx="3"/>
<circle cx="586.0" cy="461.0" r="11.0" fill="none" stroke="#5c6b7e" stroke-width="1" opacity="0.7"/>
<circle cx="656.0" cy="461.0" r="11.0" fill="none" stroke="#5c6b7e" stroke-width="1" opacity="0.7"/>
<circle cx="726.0" cy="461.0" r="11.0" fill="none" stroke="#5c6b7e" stroke-width="1" opacity="0.7"/>
<circle cx="796.0" cy="461.0" r="11.0" fill="none" stroke="#5c6b7e" stroke-width="1" opacity="0.7"/>
<circle cx="866.0" cy="461.0" r="11.0" fill="none" stroke="#5c6b7e" stroke-width="1" opacity="0.7"/></g>
<g class="pobj" data-pos="6"><rect x="290.0" y="424.0" width="4.0" height="20.0" fill="#b9c6d9" stroke="#5f7390" rx="3"/></g>
<g class="pobj" data-pos="7"><rect x="296.0" y="418.0" width="140.0" height="20.0" fill="#eef2f8" stroke="#c2cedd" rx="3"/>
<circle cx="332.0" cy="429.0" r="11.0" fill="none" stroke="#5c6b7e" stroke-width="1" opacity="0.7"/>
<circle cx="402.0" cy="429.0" r="11.0" fill="none" stroke="#5c6b7e" stroke-width="1" opacity="0.7"/></g>
<g class="pobj" data-pos="8"><rect x="446.0" y="368.0" width="40.0" height="18.0" fill="#b9c6d9" stroke="#5f7390" rx="6"/></g>
<g class="pobj" data-pos="8"><rect x="459.0" y="340.0" width="14.0" height="28.0" fill="#b9c6d9" stroke="#5f7390" rx="3"/></g>
<g class="pobj" data-pos="11"><rect x="503.0" y="430.0" width="50.0" height="8.0" fill="#b9c6d9" stroke="#5f7390" rx="6"/></g>
<g class="pobj" data-pos="11"><rect x="521.0" y="352.0" width="14.0" height="28.0" fill="#b9c6d9" stroke="#5f7390" rx="3"/></g>
<g class="pobj" data-pos="11"><rect x="522.0" y="380.0" width="12.0" height="50.0" fill="#b9c6d9" stroke="#5f7390" rx="4"/></g>
<g class="pobj" data-pos="12"><rect x="536.0" y="476.0" width="16.0" height="28.0" fill="#b9c6d9" stroke="#5f7390" rx="3"/></g>
<g class="pobj" data-pos="12"><rect x="539.0" y="470.0" width="10.0" height="6.0" fill="#b9c6d9" stroke="#5f7390" rx="3"/></g>
<g class="pobj" data-pos="13"><rect x="606.0" y="438.0" width="80.0" height="12.0" fill="#eef2f8" stroke="#c2cedd" rx="3"/></g>
<g class="pobj" data-pos="27"><rect x="896.0" y="414.0" width="90.0" height="6.0" fill="#cbd8ea" stroke="#8da2bd" rx="3" opacity="0.6"/></g>
<g class="pobj" data-pos="28"><rect x="896.0" y="450.0" width="210.0" height="20.0" fill="#fbefe3" stroke="#dcc3a8" rx="3"/>
<circle cx="932.0" cy="461.0" r="11.0" fill="none" stroke="#5c6b7e" stroke-width="1" opacity="0.7"/>
<circle cx="1002.0" cy="461.0" r="11.0" fill="none" stroke="#5c6b7e" stroke-width="1" opacity="0.7"/>
<circle cx="1072.0" cy="461.0" r="11.0" fill="none" stroke="#5c6b7e" stroke-width="1" opacity="0.7"/></g>
<rect x="136.0" y="438.0" width="40.0" height="12.0" fill="#bcd2ee" stroke="#1f66c4" rx="3"/>
<rect x="346.0" y="438.0" width="40.0" height="12.0" fill="#bcd2ee" stroke="#1f66c4" rx="3"/>
<rect x="446.0" y="438.0" width="40.0" height="12.0" fill="#bcd2ee" stroke="#1f66c4" rx="3"/>
<rect x="566.0" y="438.0" width="40.0" height="12.0" fill="#bcd2ee" stroke="#1f66c4" rx="3"/>
<rect x="921.0" y="438.0" width="40.0" height="12.0" fill="#bcd2ee" stroke="#1f66c4" rx="3"/>
<rect x="981.0" y="438.0" width="40.0" height="12.0" fill="#bcd2ee" stroke="#1f66c4" rx="3"/>
<g class="pobj" data-pos="3"><rect x="216.0" y="470.0" width="680.0" height="16.0" fill="#eef2f8" stroke="#c2cedd" rx="3"/></g>
<g class="pobj" data-pos="5"><rect x="296.0" y="438.0" width="60.0" height="12.0" fill="#eef2f8" stroke="#c2cedd" rx="3"/></g>
<g class="pobj" data-pos="27"><rect x="896.0" y="420.0" width="90.0" height="30.0" fill="#eef2f8" stroke="#c2cedd" rx="3"/></g>
<g class="pobj" data-pos="2"><rect x="216.0" y="250.0" width="10.0" height="10.0" fill="#eef2f8" stroke="#c2cedd" rx="3"/></g>
<g class="pobj" data-pos="2"><rect x="886.0" y="250.0" width="10.0" height="10.0" fill="#eef2f8" stroke="#c2cedd" rx="3"/></g>
<g class="pobj" data-pos="2"><rect x="216.0" y="600.0" width="10.0" height="10.0" fill="#eef2f8" stroke="#c2cedd" rx="3"/></g>
<g class="pobj" data-pos="2"><rect x="886.0" y="600.0" width="10.0" height="10.0" fill="#eef2f8" stroke="#c2cedd" rx="3"/></g>
<g class="pobj" data-pos="25"><rect x="556.0" y="250.0" width="280.0" height="6.0" fill="#cbd8ea" stroke="#8da2bd" rx="3" opacity="0.5"/></g>
<g class="pobj" data-pos="10"><rect x="484.0" y="364.0" width="24.0" height="32.0" fill="#b9c6d9" stroke="#5f7390" rx="3"/></g>
<g class="pobj" data-pos="21"><rect x="766.0" y="450.0" width="100.0" height="20.0" fill="#eef2f8" stroke="#c2cedd" rx="3"/>
<circle cx="802.0" cy="461.0" r="11.0" fill="none" stroke="#5c6b7e" stroke-width="1" opacity="0.7"/></g>
<rect x="771.0" y="438.0" width="26.0" height="12.0" fill="#bcd2ee" stroke="#1f66c4" rx="3"/>
<rect x="799.0" y="438.0" width="26.0" height="12.0" fill="#bcd2ee" stroke="#1f66c4" rx="3"/>
<rect x="827.0" y="438.0" width="26.0" height="12.0" fill="#bcd2ee" stroke="#1f66c4" rx="3"/>
<rect x="626.0" y="438.0" width="40.0" height="12.0" fill="#bcd2ee" stroke="#1f66c4" rx="3"/>
<g class="pobj" data-pos="19"><rect x="686.0" y="250.0" width="20.0" height="20.0" fill="#eef2f8" stroke="#c2cedd" rx="3" opacity="0.6"/></g>
<g class="pobj" data-pos="17"><rect x="674.0" y="330.0" width="44.0" height="60.0" fill="#eef2f8" stroke="#c2cedd" rx="3"/>
<polyline points="696.0,398.0 639.6,398.0" fill="none" stroke="#174f9c" stroke-width="12" stroke-linecap="round" stroke-linejoin="round"/>
<polyline points="639.6,398.0 646.0,412.0" fill="none" stroke="#174f9c" stroke-width="10" stroke-linecap="round" stroke-linejoin="round"/>
<polyline points="696.0,398.0 639.6,398.0" fill="none" stroke="#1f66c4" stroke-width="8" stroke-linecap="round" stroke-linejoin="round"/>
<polyline points="639.6,398.0 646.0,412.0" fill="none" stroke="#1f66c4" stroke-width="6" stroke-linecap="round" stroke-linejoin="round"/>
<polyline points="646.0,412.0 646.0,418.0" fill="none" stroke="#17202c" stroke-width="4.5" stroke-linecap="round" stroke-linejoin="round"/>
<line x1="641.0" y1="418.0" x2="651.0" y2="418.0" stroke="#17202c" stroke-width="3" stroke-linecap="round"/>
<circle cx="696.0" cy="398.0" r="6.5" fill="#ffffff" stroke="#1f66c4" stroke-width="2"/>
<circle cx="639.6" cy="398.0" r="5.5" fill="#ffffff" stroke="#1f66c4" stroke-width="2"/>
<circle cx="646.0" cy="412.0" r="4.5" fill="#ffffff" stroke="#1f66c4" stroke-width="2"/></g>
<g class="pobj" data-pos="19"><rect x="686.0" y="270.0" width="20.0" height="60.0" fill="#eef2f8" stroke="#c2cedd" rx="3"/></g>
<g class="pobj" data-pos="21"><rect x="836.0" y="434.0" width="40.0" height="16.0" fill="#b9c6d9" stroke="#5f7390" rx="3"/></g>
<g class="pobj" data-pos="14"><rect x="616.0" y="450.0" width="60.0" height="20.0" fill="#eef2f8" stroke="#c2cedd" rx="3"/></g>
<g class="pobj" data-pos="21"><rect x="842.0" y="440.0" width="28.0" height="20.0" fill="#eef2f8" stroke="#c2cedd" rx="3"/></g>
<g class="pobj" data-pos="15"><rect x="616.0" y="432.0" width="60.0" height="8.0" fill="#b9c6d9" stroke="#5f7390" rx="3"/></g>
<g class="pobj" data-pos="15"><rect x="676.0" y="430.0" width="20.0" height="20.0" fill="#eef2f8" stroke="#c2cedd" rx="3"/></g>
<g class="pobj" data-pos="20"><rect x="716.0" y="480.0" width="80.0" height="60.0" fill="#eef2f8" stroke="#c2cedd" rx="3"/></g>
<g class="pobj" data-pos="20"><rect x="744.0" y="540.0" width="24.0" height="90.0" fill="#eef2f8" stroke="#c2cedd" rx="3"/></g>
<g class="pobj" data-pos="15"><rect x="616.0" y="440.0" width="60.0" height="10.0" fill="#eef2f8" stroke="#c2cedd" rx="3"/></g>
<g class="pobj" data-pos="18"><rect x="632.0" y="418.0" width="28.0" height="10.0" fill="#b9c6d9" stroke="#5f7390" rx="3"/></g>
<rect x="626.0" y="428.0" width="40.0" height="12.0" fill="#bcd2ee" stroke="#1f66c4" rx="3"/>
<g class="pobj" data-pos="19"><rect x="688.0" y="270.0" width="16.0" height="360.0" fill="#eef2f8" stroke="#c2cedd" rx="3"/></g>
<g class="pobj" data-pos="16"><rect x="634.0" y="314.0" width="24.0" height="32.0" fill="#b9c6d9" stroke="#5f7390" rx="3"/></g>
<g class="pobj" data-pos="2"><rect x="216.0" y="250.0" width="10.0" height="380.0" fill="#eef2f8" stroke="#c2cedd" rx="3"/></g>
<g class="pobj" data-pos="2"><rect x="886.0" y="250.0" width="10.0" height="380.0" fill="#eef2f8" stroke="#c2cedd" rx="3"/></g>
<g class="pobj" data-pos="2"><rect x="216.0" y="250.0" width="680.0" height="10.0" fill="#eef2f8" stroke="#c2cedd" rx="3"/></g>
<g class="pobj" data-pos="2"><rect x="216.0" y="600.0" width="680.0" height="10.0" fill="#eef2f8" stroke="#c2cedd" rx="3"/></g>
<g class="pobj" data-pos="26"><rect x="596.0" y="402.0" width="12.0" height="28.0" fill="#b9c6d9" stroke="#5f7390" rx="3"/></g>
<g class="pobj" data-pos="26"><rect x="796.0" y="402.0" width="12.0" height="28.0" fill="#b9c6d9" stroke="#5f7390" rx="3"/></g>
<line x1="76" y1="630.0" x2="1196.0" y2="630.0" stroke="#17202c" stroke-width="2.5"/>
<line x1="96.0" y1="630.0" x2="87.0" y2="639.0" stroke="#5c6b7e" stroke-width="1"/>
<line x1="256.0" y1="630.0" x2="247.0" y2="639.0" stroke="#5c6b7e" stroke-width="1"/>
<line x1="416.0" y1="630.0" x2="407.0" y2="639.0" stroke="#5c6b7e" stroke-width="1"/>
<line x1="576.0" y1="630.0" x2="567.0" y2="639.0" stroke="#5c6b7e" stroke-width="1"/>
<line x1="736.0" y1="630.0" x2="727.0" y2="639.0" stroke="#5c6b7e" stroke-width="1"/>
<line x1="896.0" y1="630.0" x2="887.0" y2="639.0" stroke="#5c6b7e" stroke-width="1"/>
<line x1="1056.0" y1="630.0" x2="1047.0" y2="639.0" stroke="#5c6b7e" stroke-width="1"/>
<line x1="1216.0" y1="630.0" x2="1207.0" y2="639.0" stroke="#5c6b7e" stroke-width="1"/>
<g class="pnum" data-pos="26"><circle cx="564.0" cy="392.0" r="9" fill="#ffffff" stroke="#1f66c4" stroke-width="1.2"/><text x="564.0" y="395.5" text-anchor="middle" fill="#1f66c4" font-family="'IBM Plex Mono',Menlo,monospace" font-size="10.5" font-weight="600">26</text></g>
<g class="pnum" data-pos="2"><circle cx="204.0" cy="240.0" r="9" fill="#ffffff" stroke="#1f66c4" stroke-width="1.2"/><text x="204.0" y="243.5" text-anchor="middle" fill="#1f66c4" font-family="'IBM Plex Mono',Menlo,monospace" font-size="10.5" font-weight="600">2</text></g>
<g class="pnum" data-pos="22"><circle cx="294.0" cy="420.0" r="9" fill="#ffffff" stroke="#1f66c4" stroke-width="1.2"/><text x="294.0" y="423.5" text-anchor="middle" fill="#1f66c4" font-family="'IBM Plex Mono',Menlo,monospace" font-size="10.5" font-weight="600">22</text></g>
<g class="pnum" data-pos="23"><circle cx="378.0" cy="310.0" r="9" fill="#ffffff" stroke="#1f66c4" stroke-width="1.2"/><text x="378.0" y="313.5" text-anchor="middle" fill="#1f66c4" font-family="'IBM Plex Mono',Menlo,monospace" font-size="10.5" font-weight="600">23</text></g>
<g class="pnum" data-pos="24"><circle cx="857.0" cy="170.0" r="9" fill="#ffffff" stroke="#1f66c4" stroke-width="1.2"/><text x="857.0" y="173.5" text-anchor="middle" fill="#1f66c4" font-family="'IBM Plex Mono',Menlo,monospace" font-size="10.5" font-weight="600">24</text></g>
<g class="pnum" data-pos="9"><circle cx="472.0" cy="354.0" r="9" fill="#ffffff" stroke="#1f66c4" stroke-width="1.2"/><text x="472.0" y="357.5" text-anchor="middle" fill="#1f66c4" font-family="'IBM Plex Mono',Menlo,monospace" font-size="10.5" font-weight="600">9</text></g>
<g class="pnum" data-pos="4"><circle cx="220.0" cy="438.0" r="9" fill="#ffffff" stroke="#1f66c4" stroke-width="1.2"/><text x="220.0" y="441.5" text-anchor="middle" fill="#1f66c4" font-family="'IBM Plex Mono',Menlo,monospace" font-size="10.5" font-weight="600">4</text></g>
<g class="pnum" data-pos="5"><circle cx="284.0" cy="449.0" r="9" fill="#ffffff" stroke="#1f66c4" stroke-width="1.2"/><text x="284.0" y="452.5" text-anchor="middle" fill="#1f66c4" font-family="'IBM Plex Mono',Menlo,monospace" font-size="10.5" font-weight="600">5</text></g>
<g class="pnum" data-pos="1"><circle cx="84.0" cy="440.0" r="9" fill="#ffffff" stroke="#c2570c" stroke-width="1.2"/><text x="84.0" y="443.5" text-anchor="middle" fill="#c2570c" font-family="'IBM Plex Mono',Menlo,monospace" font-size="10.5" font-weight="600">1</text></g>
<g class="pnum" data-pos="3"><circle cx="204.0" cy="461.0" r="9" fill="#ffffff" stroke="#1f66c4" stroke-width="1.2"/><text x="204.0" y="464.5" text-anchor="middle" fill="#1f66c4" font-family="'IBM Plex Mono',Menlo,monospace" font-size="10.5" font-weight="600">3</text></g>
<g class="pnum" data-pos="6"><circle cx="278.0" cy="477.0" r="9" fill="#ffffff" stroke="#1f66c4" stroke-width="1.2"/><text x="278.0" y="480.5" text-anchor="middle" fill="#1f66c4" font-family="'IBM Plex Mono',Menlo,monospace" font-size="10.5" font-weight="600">6</text></g>
<g class="pnum" data-pos="7"><circle cx="284.0" cy="513.0" r="9" fill="#ffffff" stroke="#1f66c4" stroke-width="1.2"/><text x="284.0" y="516.5" text-anchor="middle" fill="#1f66c4" font-family="'IBM Plex Mono',Menlo,monospace" font-size="10.5" font-weight="600">7</text></g>
<g class="pnum" data-pos="8"><circle cx="434.0" cy="358.0" r="9" fill="#ffffff" stroke="#1f66c4" stroke-width="1.2"/><text x="434.0" y="361.5" text-anchor="middle" fill="#1f66c4" font-family="'IBM Plex Mono',Menlo,monospace" font-size="10.5" font-weight="600">8</text></g>
<g class="pnum" data-pos="11"><circle cx="491.0" cy="420.0" r="9" fill="#ffffff" stroke="#1f66c4" stroke-width="1.2"/><text x="491.0" y="423.5" text-anchor="middle" fill="#1f66c4" font-family="'IBM Plex Mono',Menlo,monospace" font-size="10.5" font-weight="600">11</text></g>
<g class="pnum" data-pos="12"><circle cx="524.0" cy="466.0" r="9" fill="#ffffff" stroke="#1f66c4" stroke-width="1.2"/><text x="524.0" y="469.5" text-anchor="middle" fill="#1f66c4" font-family="'IBM Plex Mono',Menlo,monospace" font-size="10.5" font-weight="600">12</text></g>
<g class="pnum" data-pos="13"><circle cx="594.0" cy="428.0" r="9" fill="#ffffff" stroke="#1f66c4" stroke-width="1.2"/><text x="594.0" y="431.5" text-anchor="middle" fill="#1f66c4" font-family="'IBM Plex Mono',Menlo,monospace" font-size="10.5" font-weight="600">13</text></g>
<g class="pnum" data-pos="27"><circle cx="884.0" cy="404.0" r="9" fill="#ffffff" stroke="#1f66c4" stroke-width="1.2"/><text x="884.0" y="407.5" text-anchor="middle" fill="#1f66c4" font-family="'IBM Plex Mono',Menlo,monospace" font-size="10.5" font-weight="600">27</text></g>
<g class="pnum" data-pos="28"><circle cx="884.0" cy="440.0" r="9" fill="#ffffff" stroke="#c2570c" stroke-width="1.2"/><text x="884.0" y="443.5" text-anchor="middle" fill="#c2570c" font-family="'IBM Plex Mono',Menlo,monospace" font-size="10.5" font-weight="600">28</text></g>
<g class="pnum" data-pos="10"><circle cx="472.0" cy="375.0" r="9" fill="#ffffff" stroke="#1f66c4" stroke-width="1.2"/><text x="472.0" y="378.5" text-anchor="middle" fill="#1f66c4" font-family="'IBM Plex Mono',Menlo,monospace" font-size="10.5" font-weight="600">10</text></g>
<g class="pnum" data-pos="21"><circle cx="754.0" cy="440.0" r="9" fill="#fff4d6" stroke="#c98a00" stroke-width="1.9"/><text x="754.0" y="443.5" text-anchor="middle" fill="#c98a00" font-family="'IBM Plex Mono',Menlo,monospace" font-size="10.5" font-weight="600">21</text></g>
<g class="pnum" data-pos="19"><circle cx="674.0" cy="240.0" r="9" fill="#ffffff" stroke="#1f66c4" stroke-width="1.2"/><text x="674.0" y="243.5" text-anchor="middle" fill="#1f66c4" font-family="'IBM Plex Mono',Menlo,monospace" font-size="10.5" font-weight="600">19</text></g>
<g class="pnum" data-pos="17"><circle cx="655.6" cy="388.0" r="9" fill="#ffffff" stroke="#1f66c4" stroke-width="1.2"/><text x="655.6" y="391.5" text-anchor="middle" fill="#1f66c4" font-family="'IBM Plex Mono',Menlo,monospace" font-size="10.5" font-weight="600">17</text></g>
<g class="pnum" data-pos="14"><circle cx="604.0" cy="461.0" r="9" fill="#ffffff" stroke="#1f66c4" stroke-width="1.2"/><text x="604.0" y="464.5" text-anchor="middle" fill="#1f66c4" font-family="'IBM Plex Mono',Menlo,monospace" font-size="10.5" font-weight="600">14</text></g>
<g class="pnum" data-pos="20"><circle cx="704.0" cy="470.0" r="9" fill="#ffffff" stroke="#1f66c4" stroke-width="1.2"/><text x="704.0" y="473.5" text-anchor="middle" fill="#1f66c4" font-family="'IBM Plex Mono',Menlo,monospace" font-size="10.5" font-weight="600">20</text></g>
<g class="pnum" data-pos="15"><circle cx="604.0" cy="493.0" r="9" fill="#ffffff" stroke="#1f66c4" stroke-width="1.2"/><text x="604.0" y="496.5" text-anchor="middle" fill="#1f66c4" font-family="'IBM Plex Mono',Menlo,monospace" font-size="10.5" font-weight="600">15</text></g>
<g class="pnum" data-pos="18"><circle cx="620.0" cy="408.0" r="9" fill="#ffffff" stroke="#1f66c4" stroke-width="1.2"/><text x="620.0" y="411.5" text-anchor="middle" fill="#1f66c4" font-family="'IBM Plex Mono',Menlo,monospace" font-size="10.5" font-weight="600">18</text></g>
<g class="pnum" data-pos="16"><circle cx="622.0" cy="304.0" r="9" fill="#ffffff" stroke="#1f66c4" stroke-width="1.2"/><text x="622.0" y="307.5" text-anchor="middle" fill="#1f66c4" font-family="'IBM Plex Mono',Menlo,monospace" font-size="10.5" font-weight="600">16</text></g>
<circle cx="31.0" cy="676.0" r="6.5" fill="#ffffff" stroke="#1f66c4" stroke-width="1.6"/>
<text x="43.0" y="679.5" fill="#5c6b7e" font-size="10.5">в поставке</text>
<circle cx="126.0" cy="676.0" r="6.5" fill="#ffffff" stroke="#c2570c" stroke-width="1.6"/>
<text x="138.0" y="679.5" fill="#5c6b7e" font-size="10.5">оборудование заказчика, вне поставки</text>
<circle cx="366.6" cy="676.0" r="6.5" fill="#fff4d6" stroke="#c98a00" stroke-width="1.6"/>
<text x="378.6" y="679.5" fill="#5c6b7e" font-size="10.5">узел в проработке, см. примечание</text>
</svg>
